<?xml version="1.0" standalone="no"?>
<!DOCTYPE svg PUBLIC "-//W3C//DTD SVG 20010904//EN"
 "http://www.w3.org/TR/2001/REC-SVG-20010904/DTD/svg10.dtd">
<svg version="1.0" xmlns="http://www.w3.org/2000/svg"
 width="700.000000pt" height="700.000000pt" viewBox="0 0 700.000000 700.000000"
 preserveAspectRatio="xMidYMid meet">
<metadata>
Created by potrace 1.11, written by Peter Selinger 2001-2013
</metadata>
<g transform="translate(0.000000,700.000000) scale(0.100000,-0.100000)"
fill="#000000" stroke="none">
<path d="M3259 6966 c-2 -2 -44 -7 -94 -11 -102 -9 -104 -9 -165 -19 -25 -4
-58 -10 -75 -12 -16 -2 -52 -9 -80 -14 -27 -6 -59 -12 -70 -14 -11 -2 -51 -12
-90 -21 -38 -9 -77 -18 -85 -20 -68 -16 -245 -75 -358 -119 -962 -376 -1706
-1157 -2035 -2136 -45 -133 -108 -378 -123 -475 -5 -27 -9 -52 -9 -55 -1 -3
-5 -32 -9 -65 -5 -33 -10 -69 -12 -80 -19 -105 -26 -590 -11 -755 17 -185 75
-488 124 -645 42 -135 68 -212 80 -235 7 -14 13 -30 13 -37 0 -31 158 -363
238 -498 72 -123 236 -364 261 -385 4 -3 14 -16 22 -30 22 -34 170 -199 260
-290 414 -417 931 -722 1504 -889 76 -22 315 -76 380 -86 151 -22 215 -30 360
-41 78 -5 361 -5 455 1 445 30 948 170 1338 372 445 232 784 506 1122 909 108
129 289 406 385 589 156 300 292 708 340 1020 3 22 8 52 10 66 22 125 30 259
30 509 0 346 -14 474 -90 822 -9 43 -50 182 -77 263 -215 649 -604 1205 -1148
1641 -120 97 -288 209 -460 308 -147 84 -412 200 -597 262 -111 37 -351 101
-413 110 -19 3 -71 11 -115 19 -44 8 -107 17 -140 21 -33 3 -73 8 -90 11 -38
6 -570 15 -576 9z"/>
</g>
</svg>
